<?xml version="1.0" encoding="UTF-8" standalone="no"?>
<svg
   height="16"
   width="16"
   version="1.1"
   id="svg228"
   xml:space="preserve"
   xmlns="http://www.w3.org/2000/svg"
   xmlns:svg="http://www.w3.org/2000/svg"><defs
     id="defs232" /><path
     id="path301"
     style="fill:#555761;stroke-width:4;font-variation-settings:normal;opacity:1;vector-effect:none;fill-opacity:1;stroke:none;stroke-linecap:round;stroke-linejoin:round;stroke-miterlimit:4;stroke-dasharray:none;stroke-dashoffset:0;stroke-opacity:1;-inkscape-stroke:none;stop-color:#000000;stop-opacity:1"
     d="M 8 1 A 7 7 0 0 0 1 8 A 7 7 0 0 0 8 15 A 7 7 0 0 0 15 8 A 7 7 0 0 0 8 1 z M 8 3 A 5 5 0 0 1 12.896484 7 L 3.1113281 7 A 5 5 0 0 1 8 3 z M 3.1113281 9 L 12.888672 9 A 5 5 0 0 1 8 13 A 5 5 0 0 1 3.1113281 9 z " /></svg>
